<svg width="32" height="32" viewBox="0 0 32 32" fill="none" xmlns="http://www.w3.org/2000/svg">
<path d="M23.6471 4.03735L23.9371 4.04907C24.6101 4.10176 25.2586 4.33529 25.8121 4.72778C26.3655 5.1202 26.8005 5.65435 27.0729 6.27173L27.1793 6.54224L28.6598 10.7639L28.6774 10.8206L29.2946 12.9846C29.3202 13.0744 29.3338 13.1676 29.3336 13.261C29.3315 14.316 29.0026 15.3447 28.3922 16.2053C27.7818 17.066 26.9195 17.7158 25.9244 18.0667L25.9235 18.0657C25.447 18.2422 24.9469 18.3449 24.4401 18.3665L24.2203 18.3704C23.1653 18.3683 22.1366 18.0402 21.276 17.4299C20.8247 17.1098 20.4328 16.719 20.11 16.2776C19.7874 16.7185 19.3967 17.1091 18.9459 17.429C18.0857 18.0393 17.0573 18.368 16.0026 18.3704H15.9977C14.9428 18.368 13.9147 18.0393 13.0543 17.429C12.6034 17.109 12.2119 16.7186 11.8893 16.2776C11.5665 16.7189 11.1745 17.1099 10.7233 17.4299C9.8634 18.0396 8.83589 18.3668 7.78186 18.3694L7.78284 18.3704L7.77991 18.3694L7.77893 18.3704L7.77796 18.3694C7.19202 18.3721 6.60342 18.2693 6.05042 18.0579C5.06611 17.705 4.21323 17.0586 3.60803 16.2053C2.99769 15.3447 2.6687 14.316 2.66663 13.261C2.66645 13.1678 2.67919 13.0743 2.70471 12.9846L3.32092 10.8206C3.32634 10.8015 3.33197 10.7826 3.3385 10.7639L4.81897 6.54224L4.92542 6.27173C5.1979 5.65396 5.63334 5.11931 6.18714 4.72681C6.82014 4.2782 7.5773 4.03753 8.35315 4.03735H23.6471ZM8.35315 6.03735C7.99175 6.03752 7.63928 6.14976 7.34436 6.35864C7.04962 6.56752 6.82572 6.86266 6.70569 7.20337L5.23694 11.3928L4.67151 13.3801C4.69642 13.9785 4.89146 14.5581 5.23889 15.0481C5.56378 15.5062 6.00628 15.8662 6.51721 16.092L6.74085 16.1809L6.76526 16.1897C7.0825 16.3109 7.42559 16.3723 7.77112 16.3704H7.77503C8.41696 16.3692 9.0434 16.1694 9.56702 15.7981C10.0905 15.4268 10.4864 14.9024 10.6998 14.2971L10.7086 14.2737C10.8304 13.954 10.8913 13.6106 10.8893 13.2639V13.2561L10.8951 13.1536C10.9477 12.651 11.3722 12.2597 11.8883 12.259C12.4387 12.2585 12.8861 12.7027 12.8893 13.2532C12.8893 13.2558 12.8883 13.2584 12.8883 13.261L12.8893 13.262C12.8883 13.6088 12.9501 13.9529 13.0719 14.2776C13.0743 14.2839 13.0765 14.2908 13.0787 14.2971C13.2921 14.9023 13.6882 15.4268 14.2115 15.7981C14.7342 16.1688 15.3589 16.3674 15.9996 16.3694C16.6407 16.3676 17.2658 16.1691 17.7887 15.7981C18.312 15.4268 18.7071 14.9022 18.9205 14.2971L18.9293 14.2737C19.0518 13.9522 19.1139 13.6097 19.111 13.2668V13.2561L19.1158 13.1536C19.1683 12.6515 19.5925 12.2605 20.108 12.259C20.658 12.2576 21.1063 12.7003 21.111 13.2502C21.111 13.2538 21.11 13.2574 21.11 13.261C21.1092 13.5211 21.1447 13.7804 21.2135 14.0305L21.2936 14.2776L21.3004 14.2971C21.5139 14.9024 21.9097 15.4268 22.4332 15.7981C22.9568 16.1694 23.5824 16.3691 24.2242 16.3704C24.5709 16.3713 24.9163 16.3096 25.2408 16.1877L25.2594 16.1809C25.8648 15.9675 26.389 15.5717 26.7604 15.0481C27.1077 14.5584 27.3027 13.9792 27.3278 13.3811L26.7643 11.4036L25.2926 7.20532L25.2428 7.07935C25.1159 6.79144 24.9129 6.54262 24.6549 6.35962C24.3968 6.17661 24.0947 6.06677 23.7809 6.04224L23.6461 6.03735H8.35315Z" fill="black"/>
<path d="M5.40528 24.2227V17.1241C5.40528 16.5718 5.853 16.1241 6.40528 16.1241C6.95757 16.1241 7.40528 16.5718 7.40528 17.1241V24.2227C7.40528 24.4513 7.4506 24.6776 7.5381 24.8888C7.62556 25.0998 7.75349 25.2917 7.91505 25.4532C8.07671 25.6148 8.26927 25.7428 8.48048 25.8302C8.69161 25.9175 8.91802 25.9631 9.14649 25.963H22.8516L23.0234 25.9542C23.4217 25.9145 23.7965 25.7387 24.082 25.4532C24.3675 25.1677 24.5432 24.7928 24.583 24.3946L24.5918 24.2227V17.1241C24.5918 16.5719 25.0396 16.1242 25.5918 16.1241C26.1441 16.1241 26.5918 16.5718 26.5918 17.1241V24.2237C26.5912 25.2152 26.1972 26.1662 25.4961 26.8673C24.795 27.5683 23.8441 27.9625 22.8525 27.963H9.14649C8.6554 27.9631 8.16863 27.8666 7.71485 27.6788C7.26101 27.4909 6.84839 27.2155 6.50099 26.8682C6.15354 26.521 5.87849 26.1082 5.69044 25.6544C5.50237 25.2005 5.40528 24.714 5.40528 24.2227ZM20.1104 21.8516C20.6625 21.8516 21.1101 22.2996 21.1104 22.8516C21.1104 23.4039 20.6626 23.8516 20.1104 23.8516H11.8897C11.3374 23.8516 10.8897 23.4039 10.8897 22.8516C10.8899 22.2996 11.3375 21.8516 11.8897 21.8516H20.1104Z" fill="black"/>
</svg>
